<svg height="430pt" viewBox="0 -1 512 430" width="512pt" xmlns="http://www.w3.org/2000/svg"><path d="m207.824219 302.210938h96.355469v76.152343h-96.355469zm0 0" fill="#fd919e"/><path d="m268.09375 303.84375h35.964844v68.621094h-35.964844zm0 0" fill="#e8677d"/><path d="m165.726562 378.363281h180.546876v43.53125h-180.546876zm0 0" fill="#e8677d"/><path d="m477.523438 302.210938h-443.046876c-15.804687 0-28.613281-12.8125-28.613281-28.617188v-239.117188c0-15.800781 12.808594-28.613281 28.613281-28.613281h443.046876c15.800781 0 28.613281 12.808594 28.613281 28.613281v239.117188c0 15.804688-12.8125 28.617188-28.613281 28.617188zm0 0" fill="#d3e6f8"/><path d="m472.179688 302.210938h-5.105469v-293.308594h5.105469c17.042968 0 30.859374 13.816406 30.859374 30.863281v231.582031c0 17.046875-13.816406 30.863282-30.859374 30.863282zm0 0" fill="#a4cff2"/><path d="m39.230469 43.726562h433.539062v220.621094h-433.539062zm0 0" fill="#fff"/><path d="m433.964844 45.148438h35.964844v219.199218h-35.964844zm0 0" fill="#d3e6f8"/><g fill="#4c4372"><path d="m477.523438 308.074219h-443.046876c-19.007812 0-34.476562-15.46875-34.476562-34.480469v-239.117188c0-19.007812 15.46875-34.476562 34.476562-34.476562h443.046876c19.011718 0 34.476562 15.46875 34.476562 34.476562v239.117188c0 19.011719-15.46875 34.480469-34.476562 34.480469zm-443.046876-296.347657c-12.542968 0-22.75 10.203126-22.75 22.75v239.117188c0 12.546875 10.207032 22.753906 22.75 22.753906h443.046876c12.546874 0 22.75-10.207031 22.75-22.753906v-239.117188c0-12.546874-10.207032-22.75-22.75-22.75zm0 0"/><path d="m472.769531 270.210938h-433.539062c-3.238281 0-5.863281-2.625-5.863281-5.863282v-220.621094c0-3.238281 2.625-5.863281 5.863281-5.863281h433.539062c3.238281 0 5.863281 2.625 5.863281 5.863281v220.621094c0 3.238282-2.625 5.863282-5.863281 5.863282zm-427.675781-11.726563h421.8125v-208.894531h-421.8125zm0 0"/><path d="m304.175781 384.226562h-96.355469c-3.234374 0-5.859374-2.625-5.859374-5.863281v-76.152343c0-3.238282 2.625-5.863282 5.859374-5.863282h96.355469c3.238281 0 5.863281 2.625 5.863281 5.863282v76.152343c0 3.238281-2.625 5.863281-5.863281 5.863281zm-90.492187-11.726562h84.632812v-64.425781h-84.632812zm0 0"/><path d="m346.273438 427.757812h-180.546876c-3.238281 0-5.863281-2.625-5.863281-5.863281v-43.53125c0-3.238281 2.625-5.863281 5.863281-5.863281h180.546876c3.238281 0 5.863281 2.625 5.863281 5.863281v43.53125c0 3.238281-2.625 5.863281-5.863281 5.863281zm-174.683594-11.722656h168.820312v-31.808594h-168.820312zm0 0"/><path d="m230.007812 106.03125c.101563-9.453125 2.464844-17.980469 6.984376-24.554688 4.316406-6.574218 10.992187-11.40625 19.109374-11.40625 7.914063 0 14.691407 4.832032 19.007813 11.40625 4.417969 6.574219 6.882813 15.101563 6.882813 24.554688 0 9.351562-2.464844 17.980469-6.882813 24.554688-4.316406 6.472656-11.097656 11.40625-19.007813 11.40625-8.117187 0-14.792968-4.933594-19.109374-11.40625-4.519532-6.574219-6.882813-15.203126-6.984376-24.554688zm40.582032 0c0-7.398438-2.054688-13.871094-4.933594-18.289062-2.980469-4.3125-6.371094-6.367188-9.554688-6.265626-3.183593-.101562-6.675781 1.953126-9.757812 6.265626-2.878906 4.417968-4.933594 10.890624-4.933594 18.289062 0 7.296875 2.054688 13.871094 4.933594 18.183594 3.082031 4.417968 6.574219 6.371094 9.757812 6.371094 3.183594 0 6.574219-1.953126 9.554688-6.371094 2.878906-4.3125 4.933594-10.886719 4.933594-18.183594zm0 0"/><path d="m268.054688 165.296875v60.617187c0 3.183594-2.671876 5.652344-5.75 5.652344-3.1875 0-5.652344-2.46875-5.652344-5.652344v-50.546874l-4.109375 2.359374c-.925781.617188-1.953125.824219-2.878907.824219-1.949218 0-3.800781-1.027343-4.828124-2.875-1.746094-2.570312-.820313-6.167969 1.851562-7.707031l12.636719-7.5c.101562-.101562.308593-.101562.410156-.207031.207031 0 .308594-.203125.515625-.308594.203125 0 .410156-.101563.617188-.101563.101562-.101562.308593-.101562.410156-.101562.207031-.101562.511718-.101562.71875-.101562h.308594.101562.722656c.101563.101562.304688.101562.410156.101562.308594 0 .410157.101562.617188.203125.101562 0 .308594 0 .410156.105469.308594.203125.410156.308594.617188.308594.101562.101562.203125.203124.410156.304687.101562.105469.308594.207031.410156.308594.207032.101562.308594.308593.410156.410156.105469.105469.207032.207031.308594.414063.105469.101562.308594.308593.414063.410156l.101562.203125c0 .105469.101563.207031.101563.308593.101562.207032.207031.308594.207031.515626.101563.207031.101563.410156.203125.511718 0 .207032.101562.414063.101562.515625 0 .308594 0 .515625.207032.71875-.003906.101563-.003906.207031-.003906.308594zm0 0"/><path d="m169.9375 75.722656v60.617188c0 3.1875-2.671875 5.652344-5.753906 5.652344-3.1875 0-5.652344-2.46875-5.652344-5.652344v-50.546875l-4.109375 2.363281c-.925781.617188-1.953125.820312-2.875.820312-1.953125 0-3.800781-1.027343-4.828125-2.875-1.746094-2.570312-.824219-6.167968 1.847656-7.707031l12.636719-7.5c.101563-.101562.308594-.101562.410156-.207031.207031 0 .308594-.203125.515625-.308594.207032 0 .410156-.101562.617188-.101562.101562-.101563.308594-.101563.410156-.101563.207031-.101562.515625-.101562.722656-.101562h.304688.101562.722656c.101563.101562.308594.101562.410157.101562.308593 0 .410156.101563.617187.203125.101563 0 .308594 0 .410156.105469.308594.203125.410157.308594.617188.308594.101562.101562.207031.203125.410156.304687.101563.105469.308594.207032.414063.308594.203125.101562.304687.308594.410156.414062.101563.101563.203125.203126.308594.410157.101562.101562.304687.308593.410156.410156l.101563.203125c0 .105469.101562.207031.101562.308594.105469.207031.207031.308594.207031.515625.101563.207031.101563.410156.207031.511719 0 .207031.101563.414062.101563.515624 0 .308594 0 .515626.203125.71875zm0 0"/><path d="m366.175781 75.722656v60.617188c0 3.1875-2.671875 5.652344-5.753906 5.652344-3.1875 0-5.652344-2.46875-5.652344-5.652344v-50.546875l-4.109375 2.363281c-.921875.617188-1.949218.820312-2.875.820312-1.953125 0-3.800781-1.027343-4.828125-2.875-1.746093-2.570312-.820312-6.167968 1.847657-7.707031l12.636718-7.5c.105469-.101562.308594-.101562.414063-.207031.203125 0 .304687-.203125.511719-.308594.207031 0 .410156-.101562.617187-.101562.105469-.101563.308594-.101563.410156-.101563.207031-.101562.515625-.101562.722657-.101562h.308593.101563.71875c.105468.101562.308594.101562.410156.101562.308594 0 .414062.101563.617188.203125.105468 0 .308593 0 .414062.105469.308594.203125.410156.308594.617188.308594.101562.101562.203124.203125.410156.304687.101562.105469.308594.207032.410156.308594.207031.101562.308594.308594.410156.414062.105469.101563.207032.203126.308594.410157.105469.101562.308594.308593.414062.410156l.101563.203125c0 .105469.101563.207031.101563.308594.105468.207031.207031.308594.207031.515625.101562.207031.101562.410156.203125.511719 0 .207031.105468.414062.105468.515624 0 .308594 0 .515626.207032.71875-.007813.105469-.007813.207032-.007813.308594zm0 0"/><path d="m131.886719 195.605469c.101562-9.449219 2.464843-17.980469 6.984375-24.554688 4.316406-6.574219 10.996094-11.402343 19.109375-11.402343 7.914062 0 14.695312 4.828124 19.007812 11.402343 4.417969 6.574219 6.882813 15.105469 6.882813 24.554688 0 9.351562-2.464844 17.980469-6.882813 24.554687-4.3125 6.472656-11.09375 11.40625-19.007812 11.40625-8.113281 0-14.792969-4.933594-19.109375-11.40625-4.519532-6.574218-6.882813-15.203125-6.984375-24.554687zm40.582031 0c0-7.398438-2.054688-13.867188-4.929688-18.285157-2.980468-4.316406-6.371093-6.371093-9.554687-6.269531-3.183594-.101562-6.679687 1.953125-9.761719 6.269531-2.875 4.417969-4.929687 10.886719-4.929687 18.285157 0 7.296875 2.054687 13.871093 4.929687 18.183593 3.082032 4.417969 6.578125 6.371094 9.761719 6.371094s6.574219-1.953125 9.554687-6.371094c2.875-4.3125 4.929688-10.890624 4.929688-18.183593zm0 0"/><path d="m328.125 195.605469c.105469-9.449219 2.464844-17.980469 6.988281-24.554688 4.3125-6.574219 10.992188-11.402343 19.109375-11.402343 7.910156 0 14.6875 4.828124 19.007813 11.402343 4.414062 6.574219 6.882812 15.105469 6.882812 24.554688 0 9.351562-2.46875 17.980469-6.882812 24.554687-4.316407 6.472656-11.097657 11.40625-19.007813 11.40625-8.117187 0-14.796875-4.933594-19.109375-11.40625-4.523437-6.574218-6.882812-15.203125-6.988281-24.554687zm40.585938 0c0-7.398438-2.058594-13.867188-4.933594-18.285157-2.980469-4.316406-6.371094-6.371093-9.554688-6.269531-3.183594-.101562-6.675781 1.953125-9.757812 6.269531-2.878906 4.417969-4.933594 10.886719-4.933594 18.285157 0 7.296875 2.054688 13.871093 4.933594 18.183593 3.082031 4.417969 6.574218 6.371094 9.757812 6.371094s6.574219-1.953125 9.554688-6.371094c2.875-4.3125 4.933594-10.890624 4.933594-18.183593zm0 0"/></g></svg>